<!-- Watercolor-style painted turtle logo (Chrysemys picta) for Painted Turtle LLC. Hand-drawn, peaceful, and nature-inspired. Replace with your own SVG if desired. -->
<svg width="120" height="120" viewBox="0 0 120 120" fill="none" xmlns="http://www.w3.org/2000/svg">
  <ellipse cx="60" cy="60" rx="44" ry="32" fill="#b3d8e6" fill-opacity="0.4"/>
  <ellipse cx="60" cy="60" rx="36" ry="28" fill="#6e8b3d" stroke="#2d4739" stroke-width="2"/>
  <ellipse cx="60" cy="60" rx="28" ry="20" fill="#f5e9da" stroke="#4fa3a5" stroke-width="1.5"/>
  <!-- Turtle shell pattern -->
  <ellipse cx="60" cy="60" rx="18" ry="12" fill="#f7b267" fill-opacity="0.7"/>
  <ellipse cx="60" cy="60" rx="10" ry="6" fill="#6e8b3d" fill-opacity="0.7"/>
  <!-- Head -->
  <ellipse cx="60" cy="36" rx="8" ry="10" fill="#6e8b3d" stroke="#2d4739" stroke-width="1.5"/>
  <ellipse cx="60" cy="34" rx="2" ry="2.5" fill="#f5e9da"/>
  <!-- Eyes -->
  <ellipse cx="58" cy="34" rx="0.8" ry="1" fill="#2d4739"/>
  <ellipse cx="62" cy="34" rx="0.8" ry="1" fill="#2d4739"/>
  <!-- Legs -->
  <ellipse cx="38" cy="60" rx="5" ry="10" fill="#6e8b3d" stroke="#2d4739" stroke-width="1"/>
  <ellipse cx="82" cy="60" rx="5" ry="10" fill="#6e8b3d" stroke="#2d4739" stroke-width="1"/>
  <ellipse cx="48" cy="88" rx="4" ry="8" fill="#6e8b3d" stroke="#2d4739" stroke-width="1"/>
  <ellipse cx="72" cy="88" rx="4" ry="8" fill="#6e8b3d" stroke="#2d4739" stroke-width="1"/>
  <!-- Peaceful smile -->
  <path d="M57 39 Q60 42 63 39" stroke="#2d4739" stroke-width="1" fill="none"/>
</svg>